<!-- also made by cognitixsammy, thanks so much!!-->

<svg version="1.2" xmlns="http://www.w3.org/2000/svg" viewBox="0 0 56 89" width="56" height="89">
	<title>costume3 (3)-svg</title>
	<style>
		.s0 { paint-order:stroke fill markers;stroke: #ffffff;stroke-width: 22;stroke-linejoin: round;;fill: #000000 } 
		.s1 { paint-order:stroke fill markers;stroke: #ffffff;stroke-width: 0;stroke-linejoin: round;;fill: #000000 } 
	</style>
	<path id="Z" class="s0" aria-label="Z"  d="m11.7 33.3q-1.4 0-2.1-1-0.7-1-0.7-2.4v-11.2q0-1.3 0.1-1.8 0.1-0.5 0.7-1.2 0.5-0.5 1.3-0.7 0.8-0.2 1.6-0.2 0.7 0 1.1 0h29.7q0.6 0 1.3 0 0.8 0 1.2 0.5 0.4 0.6 0.4 1.1 0 0.6-0.2 1.1-0.1 0.2-0.7 1.2l-26.9 46.5q-0.4 0.7-0.5 0.9-0.1 0.3-0.1 0.5 0 0.1 0 0.2 0 0.2 0.1 0.3 0.2 0.2 0.7 0.4 0.6 0.1 1.6 0.1h11.4q0.7 0 1.3-0.1 0.5 0 0.9-0.2 0.3-0.3 0.5-0.9 0.1-0.5 0.1-1.2v-8.8q0-0.9 0.2-1.4 0.1-0.5 0.4-0.9 0.7-0.7 2.6-0.7h6.3q1 0 1.8 0.1 0.8 0.2 1.1 0.6 0.4 0.4 0.4 1 0.1 0.5 0.1 1.4v12q0 1.1-0.2 1.8-0.3 0.7-0.9 1.2-0.7 0.6-1.3 0.7-0.6 0.2-1.7 0.2l-29.9 0.1q-1.8 0-2.5-0.2-0.7 0-1.4-0.7-0.5-0.4-0.5-1.3 0-0.7 0.4-1.4l26.2-45.8q0.3-0.7 0.5-1.2 0.2-0.5 0.2-0.9 0-0.3-0.2-0.5-0.3-0.4-1.7-0.4-0.5 0-0.8 0h-14.5q-1.7 0-2.7 0.7-0.8 0.4-1.4 1.4-0.6 1-0.6 2v5.7q0 1.4-0.6 2.4-0.7 1-2.1 1z"/>
	<path id="Z" class="s1" aria-label="Z"  d="m11.7 33.3q-1.4 0-2.1-1-0.7-1-0.7-2.4v-11.2q0-1.3 0.1-1.8 0.1-0.5 0.7-1.2 0.5-0.5 1.3-0.7 0.8-0.2 1.6-0.2 0.7 0 1.1 0h29.7q0.6 0 1.3 0 0.8 0 1.2 0.5 0.4 0.6 0.4 1.1 0 0.6-0.2 1.1-0.1 0.2-0.7 1.2l-26.9 46.5q-0.4 0.7-0.5 0.9-0.1 0.3-0.1 0.5 0 0.1 0 0.2 0 0.2 0.1 0.3 0.2 0.2 0.7 0.4 0.6 0.1 1.6 0.1h11.4q0.7 0 1.3-0.1 0.5 0 0.9-0.2 0.3-0.3 0.5-0.9 0.1-0.5 0.1-1.2v-8.8q0-0.9 0.2-1.4 0.1-0.5 0.4-0.9 0.7-0.7 2.6-0.7h6.3q1 0 1.8 0.1 0.8 0.2 1.1 0.6 0.4 0.4 0.4 1 0.1 0.5 0.1 1.4v12q0 1.1-0.2 1.8-0.3 0.7-0.9 1.2-0.7 0.6-1.3 0.7-0.6 0.2-1.7 0.2l-29.9 0.1q-1.8 0-2.5-0.2-0.7 0-1.4-0.7-0.5-0.4-0.5-1.3 0-0.7 0.4-1.4l26.2-45.8q0.3-0.7 0.5-1.2 0.2-0.5 0.2-0.9 0-0.3-0.2-0.5-0.3-0.4-1.7-0.4-0.5 0-0.8 0h-14.5q-1.7 0-2.7 0.7-0.8 0.4-1.4 1.4-0.6 1-0.6 2v5.7q0 1.4-0.6 2.4-0.7 1-2.1 1z"/>
</svg>
